<?xml version="1.0" encoding="utf-8" standalone="no"?>
<!DOCTYPE svg PUBLIC "-//W3C//DTD SVG 1.1//EN"
  "http://www.w3.org/Graphics/SVG/1.1/DTD/svg11.dtd">
<svg xmlns:xlink="http://www.w3.org/1999/xlink" width="720pt" height="504pt" viewBox="0 0 720 504" xmlns="http://www.w3.org/2000/svg" version="1.1">
 <metadata>
  <rdf:RDF xmlns:dc="http://purl.org/dc/elements/1.1/" xmlns:cc="http://creativecommons.org/ns#" xmlns:rdf="http://www.w3.org/1999/02/22-rdf-syntax-ns#">
   <cc:Work>
    <dc:type rdf:resource="http://purl.org/dc/dcmitype/StillImage"/>
    <dc:date>2024-06-03T06:33:38.525103</dc:date>
    <dc:format>image/svg+xml</dc:format>
    <dc:creator>
     <cc:Agent>
      <dc:title>Matplotlib v3.8.4, https://matplotlib.org/</dc:title>
     </cc:Agent>
    </dc:creator>
   </cc:Work>
  </rdf:RDF>
 </metadata>
 <defs>
  <style type="text/css">*{stroke-linejoin: round; stroke-linecap: butt}</style>
 </defs>
 <g id="figure_1">
  <g id="patch_1">
   <path d="M 0 504 
L 720 504 
L 720 0 
L 0 0 
z
" style="fill: #ffffff"/>
  </g>
  <g id="axes_1">
   <g id="patch_2">
    <path d="M 90 448.56 
L 648 448.56 
L 648 60.48 
L 90 60.48 
z
" style="fill: #ffffff"/>
   </g>
   <g id="PathCollection_1">
    <defs>
     <path id="m89a9e4cf87" d="M 0 1 
C 0.265203 1 0.51958 0.894634 0.707107 0.707107 
C 0.894634 0.51958 1 0.265203 1 0 
C 1 -0.265203 0.894634 -0.51958 0.707107 -0.707107 
C 0.51958 -0.894634 0.265203 -1 0 -1 
C -0.265203 -1 -0.51958 -0.894634 -0.707107 -0.707107 
C -0.894634 -0.51958 -1 -0.265203 -1 0 
C -1 0.265203 -0.894634 0.51958 -0.707107 0.707107 
C -0.51958 0.894634 -0.265203 1 0 1 
z
" style="stroke: #0000ff"/>
    </defs>
    <g clip-path="url(#pc6f56959af)">
     <use xlink:href="#m89a9e4cf87" x="115.363636" y="430.92" style="fill: #0000ff; stroke: #0000ff"/>
     <use xlink:href="#m89a9e4cf87" x="120.487603" y="427.356339" style="fill: #0000ff; stroke: #0000ff"/>
     <use xlink:href="#m89a9e4cf87" x="125.61157" y="423.792749" style="fill: #0000ff; stroke: #0000ff"/>
     <use xlink:href="#m89a9e4cf87" x="130.735537" y="420.229089" style="fill: #0000ff; stroke: #0000ff"/>
     <use xlink:href="#m89a9e4cf87" x="135.859503" y="416.665428" style="fill: #0000ff; stroke: #0000ff"/>
     <use xlink:href="#m89a9e4cf87" x="140.983471" y="413.101838" style="fill: #0000ff; stroke: #0000ff"/>
     <use xlink:href="#m89a9e4cf87" x="146.107437" y="409.538178" style="fill: #0000ff; stroke: #0000ff"/>
     <use xlink:href="#m89a9e4cf87" x="151.231405" y="405.974517" style="fill: #0000ff; stroke: #0000ff"/>
     <use xlink:href="#m89a9e4cf87" x="156.355371" y="402.410927" style="fill: #0000ff; stroke: #0000ff"/>
     <use xlink:href="#m89a9e4cf87" x="161.479336" y="398.847266" style="fill: #0000ff; stroke: #0000ff"/>
     <use xlink:href="#m89a9e4cf87" x="166.603306" y="395.283676" style="fill: #0000ff; stroke: #0000ff"/>
     <use xlink:href="#m89a9e4cf87" x="171.727272" y="391.720016" style="fill: #0000ff; stroke: #0000ff"/>
     <use xlink:href="#m89a9e4cf87" x="176.851238" y="388.156355" style="fill: #0000ff; stroke: #0000ff"/>
     <use xlink:href="#m89a9e4cf87" x="181.975204" y="384.592765" style="fill: #0000ff; stroke: #0000ff"/>
     <use xlink:href="#m89a9e4cf87" x="187.099173" y="381.029104" style="fill: #0000ff; stroke: #0000ff"/>
     <use xlink:href="#m89a9e4cf87" x="192.223135" y="377.465444" style="fill: #0000ff; stroke: #0000ff"/>
     <use xlink:href="#m89a9e4cf87" x="197.347105" y="373.901854" style="fill: #0000ff; stroke: #0000ff"/>
     <use xlink:href="#m89a9e4cf87" x="202.471074" y="370.338193" style="fill: #0000ff; stroke: #0000ff"/>
     <use xlink:href="#m89a9e4cf87" x="207.595036" y="366.774533" style="fill: #0000ff; stroke: #0000ff"/>
     <use xlink:href="#m89a9e4cf87" x="212.719006" y="363.210943" style="fill: #0000ff; stroke: #0000ff"/>
     <use xlink:href="#m89a9e4cf87" x="217.842976" y="359.647282" style="fill: #0000ff; stroke: #0000ff"/>
     <use xlink:href="#m89a9e4cf87" x="222.966938" y="356.083621" style="fill: #0000ff; stroke: #0000ff"/>
     <use xlink:href="#m89a9e4cf87" x="228.090907" y="352.520031" style="fill: #0000ff; stroke: #0000ff"/>
     <use xlink:href="#m89a9e4cf87" x="233.214869" y="348.956371" style="fill: #0000ff; stroke: #0000ff"/>
     <use xlink:href="#m89a9e4cf87" x="238.338839" y="345.39271" style="fill: #0000ff; stroke: #0000ff"/>
     <use xlink:href="#m89a9e4cf87" x="243.462809" y="341.82912" style="fill: #0000ff; stroke: #0000ff"/>
     <use xlink:href="#m89a9e4cf87" x="248.586771" y="338.26546" style="fill: #0000ff; stroke: #0000ff"/>
     <use xlink:href="#m89a9e4cf87" x="253.710733" y="334.70187" style="fill: #0000ff; stroke: #0000ff"/>
     <use xlink:href="#m89a9e4cf87" x="258.83471" y="331.138209" style="fill: #0000ff; stroke: #0000ff"/>
     <use xlink:href="#m89a9e4cf87" x="263.958672" y="327.574548" style="fill: #0000ff; stroke: #0000ff"/>
     <use xlink:href="#m89a9e4cf87" x="269.082634" y="324.010958" style="fill: #0000ff; stroke: #0000ff"/>
     <use xlink:href="#m89a9e4cf87" x="274.206611" y="320.447298" style="fill: #0000ff; stroke: #0000ff"/>
     <use xlink:href="#m89a9e4cf87" x="279.330573" y="316.883637" style="fill: #0000ff; stroke: #0000ff"/>
     <use xlink:href="#m89a9e4cf87" x="284.454535" y="313.320047" style="fill: #0000ff; stroke: #0000ff"/>
     <use xlink:href="#m89a9e4cf87" x="289.578513" y="309.756387" style="fill: #0000ff; stroke: #0000ff"/>
     <use xlink:href="#m89a9e4cf87" x="294.702475" y="306.192726" style="fill: #0000ff; stroke: #0000ff"/>
     <use xlink:href="#m89a9e4cf87" x="299.826437" y="302.629065" style="fill: #0000ff; stroke: #0000ff"/>
     <use xlink:href="#m89a9e4cf87" x="304.950414" y="299.065404" style="fill: #0000ff; stroke: #0000ff"/>
     <use xlink:href="#m89a9e4cf87" x="310.074376" y="295.501885" style="fill: #0000ff; stroke: #0000ff"/>
     <use xlink:href="#m89a9e4cf87" x="315.198338" y="291.938225" style="fill: #0000ff; stroke: #0000ff"/>
     <use xlink:href="#m89a9e4cf87" x="320.322315" y="288.374564" style="fill: #0000ff; stroke: #0000ff"/>
     <use xlink:href="#m89a9e4cf87" x="325.446277" y="284.810903" style="fill: #0000ff; stroke: #0000ff"/>
     <use xlink:href="#m89a9e4cf87" x="330.570254" y="281.247243" style="fill: #0000ff; stroke: #0000ff"/>
     <use xlink:href="#m89a9e4cf87" x="335.694216" y="277.683582" style="fill: #0000ff; stroke: #0000ff"/>
     <use xlink:href="#m89a9e4cf87" x="340.818178" y="274.120063" style="fill: #0000ff; stroke: #0000ff"/>
     <use xlink:href="#m89a9e4cf87" x="345.942156" y="270.556402" style="fill: #0000ff; stroke: #0000ff"/>
     <use xlink:href="#m89a9e4cf87" x="351.066118" y="266.992742" style="fill: #0000ff; stroke: #0000ff"/>
     <use xlink:href="#m89a9e4cf87" x="356.19008" y="263.429081" style="fill: #0000ff; stroke: #0000ff"/>
     <use xlink:href="#m89a9e4cf87" x="361.314042" y="259.86542" style="fill: #0000ff; stroke: #0000ff"/>
     <use xlink:href="#m89a9e4cf87" x="366.438004" y="256.301901" style="fill: #0000ff; stroke: #0000ff"/>
     <use xlink:href="#m89a9e4cf87" x="371.561981" y="252.73824" style="fill: #0000ff; stroke: #0000ff"/>
     <use xlink:href="#m89a9e4cf87" x="376.685943" y="249.17458" style="fill: #0000ff; stroke: #0000ff"/>
     <use xlink:href="#m89a9e4cf87" x="381.809905" y="245.610919" style="fill: #0000ff; stroke: #0000ff"/>
     <use xlink:href="#m89a9e4cf87" x="386.933867" y="242.047258" style="fill: #0000ff; stroke: #0000ff"/>
     <use xlink:href="#m89a9e4cf87" x="392.057829" y="238.483598" style="fill: #0000ff; stroke: #0000ff"/>
     <use xlink:href="#m89a9e4cf87" x="397.181822" y="234.920079" style="fill: #0000ff; stroke: #0000ff"/>
     <use xlink:href="#m89a9e4cf87" x="402.305784" y="231.356418" style="fill: #0000ff; stroke: #0000ff"/>
     <use xlink:href="#m89a9e4cf87" x="407.429746" y="227.792757" style="fill: #0000ff; stroke: #0000ff"/>
     <use xlink:href="#m89a9e4cf87" x="412.553708" y="224.229097" style="fill: #0000ff; stroke: #0000ff"/>
     <use xlink:href="#m89a9e4cf87" x="417.67767" y="220.665436" style="fill: #0000ff; stroke: #0000ff"/>
     <use xlink:href="#m89a9e4cf87" x="422.801662" y="217.101917" style="fill: #0000ff; stroke: #0000ff"/>
     <use xlink:href="#m89a9e4cf87" x="427.925624" y="213.538256" style="fill: #0000ff; stroke: #0000ff"/>
     <use xlink:href="#m89a9e4cf87" x="433.049586" y="209.974596" style="fill: #0000ff; stroke: #0000ff"/>
     <use xlink:href="#m89a9e4cf87" x="438.173548" y="206.410935" style="fill: #0000ff; stroke: #0000ff"/>
     <use xlink:href="#m89a9e4cf87" x="443.29751" y="202.847274" style="fill: #0000ff; stroke: #0000ff"/>
     <use xlink:href="#m89a9e4cf87" x="448.421472" y="199.283613" style="fill: #0000ff; stroke: #0000ff"/>
     <use xlink:href="#m89a9e4cf87" x="453.545434" y="195.720094" style="fill: #0000ff; stroke: #0000ff"/>
     <use xlink:href="#m89a9e4cf87" x="458.669396" y="192.156434" style="fill: #0000ff; stroke: #0000ff"/>
     <use xlink:href="#m89a9e4cf87" x="463.793389" y="188.592773" style="fill: #0000ff; stroke: #0000ff"/>
     <use xlink:href="#m89a9e4cf87" x="468.917351" y="185.029112" style="fill: #0000ff; stroke: #0000ff"/>
     <use xlink:href="#m89a9e4cf87" x="474.041313" y="181.465452" style="fill: #0000ff; stroke: #0000ff"/>
     <use xlink:href="#m89a9e4cf87" x="479.165275" y="177.901933" style="fill: #0000ff; stroke: #0000ff"/>
     <use xlink:href="#m89a9e4cf87" x="484.289267" y="174.338272" style="fill: #0000ff; stroke: #0000ff"/>
     <use xlink:href="#m89a9e4cf87" x="489.413229" y="170.774611" style="fill: #0000ff; stroke: #0000ff"/>
     <use xlink:href="#m89a9e4cf87" x="494.537191" y="167.210951" style="fill: #0000ff; stroke: #0000ff"/>
     <use xlink:href="#m89a9e4cf87" x="499.661153" y="163.64729" style="fill: #0000ff; stroke: #0000ff"/>
     <use xlink:href="#m89a9e4cf87" x="504.785146" y="160.083629" style="fill: #0000ff; stroke: #0000ff"/>
     <use xlink:href="#m89a9e4cf87" x="509.909108" y="156.519969" style="fill: #0000ff; stroke: #0000ff"/>
     <use xlink:href="#m89a9e4cf87" x="515.03307" y="152.956449" style="fill: #0000ff; stroke: #0000ff"/>
     <use xlink:href="#m89a9e4cf87" x="520.157032" y="149.392789" style="fill: #0000ff; stroke: #0000ff"/>
    </g>
   </g>
   <g id="PathCollection_2">
    <defs>
     <path id="m28f6d1d8ec" d="M 0 1 
C 0.265203 1 0.51958 0.894634 0.707107 0.707107 
C 0.894634 0.51958 1 0.265203 1 0 
C 1 -0.265203 0.894634 -0.51958 0.707107 -0.707107 
C 0.51958 -0.894634 0.265203 -1 0 -1 
C -0.265203 -1 -0.51958 -0.894634 -0.707107 -0.707107 
C -0.894634 -0.51958 -1 -0.265203 -1 0 
C -1 0.265203 -0.894634 0.51958 -0.707107 0.707107 
C -0.51958 0.894634 -0.265203 1 0 1 
z
" style="stroke: #008000"/>
    </defs>
    <g clip-path="url(#pc6f56959af)">
     <use xlink:href="#m28f6d1d8ec" x="525.280994" y="145.829128" style="fill: #008000; stroke: #008000"/>
     <use xlink:href="#m28f6d1d8ec" x="530.404956" y="142.265467" style="fill: #008000; stroke: #008000"/>
     <use xlink:href="#m28f6d1d8ec" x="535.528918" y="138.701807" style="fill: #008000; stroke: #008000"/>
     <use xlink:href="#m28f6d1d8ec" x="540.65288" y="135.138288" style="fill: #008000; stroke: #008000"/>
     <use xlink:href="#m28f6d1d8ec" x="545.776872" y="131.574627" style="fill: #008000; stroke: #008000"/>
     <use xlink:href="#m28f6d1d8ec" x="550.900834" y="128.010966" style="fill: #008000; stroke: #008000"/>
     <use xlink:href="#m28f6d1d8ec" x="556.024796" y="124.447306" style="fill: #008000; stroke: #008000"/>
     <use xlink:href="#m28f6d1d8ec" x="561.148758" y="120.883645" style="fill: #008000; stroke: #008000"/>
     <use xlink:href="#m28f6d1d8ec" x="566.27272" y="117.319984" style="fill: #008000; stroke: #008000"/>
     <use xlink:href="#m28f6d1d8ec" x="571.396682" y="113.756324" style="fill: #008000; stroke: #008000"/>
     <use xlink:href="#m28f6d1d8ec" x="576.520644" y="110.192805" style="fill: #008000; stroke: #008000"/>
     <use xlink:href="#m28f6d1d8ec" x="581.644607" y="106.629144" style="fill: #008000; stroke: #008000"/>
     <use xlink:href="#m28f6d1d8ec" x="586.768599" y="103.065483" style="fill: #008000; stroke: #008000"/>
     <use xlink:href="#m28f6d1d8ec" x="591.892561" y="99.501822" style="fill: #008000; stroke: #008000"/>
     <use xlink:href="#m28f6d1d8ec" x="597.016523" y="95.938303" style="fill: #008000; stroke: #008000"/>
     <use xlink:href="#m28f6d1d8ec" x="602.140485" y="92.374643" style="fill: #008000; stroke: #008000"/>
     <use xlink:href="#m28f6d1d8ec" x="607.264447" y="88.810982" style="fill: #008000; stroke: #008000"/>
     <use xlink:href="#m28f6d1d8ec" x="612.38844" y="85.247321" style="fill: #008000; stroke: #008000"/>
     <use xlink:href="#m28f6d1d8ec" x="617.512402" y="81.683661" style="fill: #008000; stroke: #008000"/>
     <use xlink:href="#m28f6d1d8ec" x="622.636364" y="78.12" style="fill: #008000; stroke: #008000"/>
    </g>
   </g>
   <g id="matplotlib.axis_1">
    <g id="xtick_1">
     <g id="line2d_1">
      <defs>
       <path id="m3d93b6018e" d="M 0 0 
L 0 3.5 
" style="stroke: #000000; stroke-width: 0.8"/>
      </defs>
      <g>
       <use xlink:href="#m3d93b6018e" x="115.363636" y="448.56" style="stroke: #000000; stroke-width: 0.8"/>
      </g>
     </g>
     <g id="text_1">
      <!-- 0.0 -->
      <g transform="translate(107.412074 463.158437) scale(0.1 -0.1)">
       <defs>
        <path id="DejaVuSans-30" d="M 2034 4250 
Q 1547 4250 1301 3770 
Q 1056 3291 1056 2328 
Q 1056 1369 1301 889 
Q 1547 409 2034 409 
Q 2525 409 2770 889 
Q 3016 1369 3016 2328 
Q 3016 3291 2770 3770 
Q 2525 4250 2034 4250 
z
M 2034 4750 
Q 2819 4750 3233 4129 
Q 3647 3509 3647 2328 
Q 3647 1150 3233 529 
Q 2819 -91 2034 -91 
Q 1250 -91 836 529 
Q 422 1150 422 2328 
Q 422 3509 836 4129 
Q 1250 4750 2034 4750 
z
" transform="scale(0.015625)"/>
        <path id="DejaVuSans-2e" d="M 684 794 
L 1344 794 
L 1344 0 
L 684 0 
L 684 794 
z
" transform="scale(0.015625)"/>
       </defs>
       <use xlink:href="#DejaVuSans-30"/>
       <use xlink:href="#DejaVuSans-2e" x="63.623047"/>
       <use xlink:href="#DejaVuSans-30" x="95.410156"/>
      </g>
     </g>
    </g>
    <g id="xtick_2">
     <g id="line2d_2">
      <g>
       <use xlink:href="#m3d93b6018e" x="217.842974" y="448.56" style="stroke: #000000; stroke-width: 0.8"/>
      </g>
     </g>
     <g id="text_2">
      <!-- 0.2 -->
      <g transform="translate(209.891412 463.158437) scale(0.1 -0.1)">
       <defs>
        <path id="DejaVuSans-32" d="M 1228 531 
L 3431 531 
L 3431 0 
L 469 0 
L 469 531 
Q 828 903 1448 1529 
Q 2069 2156 2228 2338 
Q 2531 2678 2651 2914 
Q 2772 3150 2772 3378 
Q 2772 3750 2511 3984 
Q 2250 4219 1831 4219 
Q 1534 4219 1204 4116 
Q 875 4013 500 3803 
L 500 4441 
Q 881 4594 1212 4672 
Q 1544 4750 1819 4750 
Q 2544 4750 2975 4387 
Q 3406 4025 3406 3419 
Q 3406 3131 3298 2873 
Q 3191 2616 2906 2266 
Q 2828 2175 2409 1742 
Q 1991 1309 1228 531 
z
" transform="scale(0.015625)"/>
       </defs>
       <use xlink:href="#DejaVuSans-30"/>
       <use xlink:href="#DejaVuSans-2e" x="63.623047"/>
       <use xlink:href="#DejaVuSans-32" x="95.410156"/>
      </g>
     </g>
    </g>
    <g id="xtick_3">
     <g id="line2d_3">
      <g>
       <use xlink:href="#m3d93b6018e" x="320.322312" y="448.56" style="stroke: #000000; stroke-width: 0.8"/>
      </g>
     </g>
     <g id="text_3">
      <!-- 0.4 -->
      <g transform="translate(312.37075 463.158437) scale(0.1 -0.1)">
       <defs>
        <path id="DejaVuSans-34" d="M 2419 4116 
L 825 1625 
L 2419 1625 
L 2419 4116 
z
M 2253 4666 
L 3047 4666 
L 3047 1625 
L 3713 1625 
L 3713 1100 
L 3047 1100 
L 3047 0 
L 2419 0 
L 2419 1100 
L 313 1100 
L 313 1709 
L 2253 4666 
z
" transform="scale(0.015625)"/>
       </defs>
       <use xlink:href="#DejaVuSans-30"/>
       <use xlink:href="#DejaVuSans-2e" x="63.623047"/>
       <use xlink:href="#DejaVuSans-34" x="95.410156"/>
      </g>
     </g>
    </g>
    <g id="xtick_4">
     <g id="line2d_4">
      <g>
       <use xlink:href="#m3d93b6018e" x="422.80165" y="448.56" style="stroke: #000000; stroke-width: 0.8"/>
      </g>
     </g>
     <g id="text_4">
      <!-- 0.6 -->
      <g transform="translate(414.850087 463.158437) scale(0.1 -0.1)">
       <defs>
        <path id="DejaVuSans-36" d="M 2113 2584 
Q 1688 2584 1439 2293 
Q 1191 2003 1191 1497 
Q 1191 994 1439 701 
Q 1688 409 2113 409 
Q 2538 409 2786 701 
Q 3034 994 3034 1497 
Q 3034 2003 2786 2293 
Q 2538 2584 2113 2584 
z
M 3366 4563 
L 3366 3988 
Q 3128 4100 2886 4159 
Q 2644 4219 2406 4219 
Q 1781 4219 1451 3797 
Q 1122 3375 1075 2522 
Q 1259 2794 1537 2939 
Q 1816 3084 2150 3084 
Q 2853 3084 3261 2657 
Q 3669 2231 3669 1497 
Q 3669 778 3244 343 
Q 2819 -91 2113 -91 
Q 1303 -91 875 529 
Q 447 1150 447 2328 
Q 447 3434 972 4092 
Q 1497 4750 2381 4750 
Q 2619 4750 2861 4703 
Q 3103 4656 3366 4563 
z
" transform="scale(0.015625)"/>
       </defs>
       <use xlink:href="#DejaVuSans-30"/>
       <use xlink:href="#DejaVuSans-2e" x="63.623047"/>
       <use xlink:href="#DejaVuSans-36" x="95.410156"/>
      </g>
     </g>
    </g>
    <g id="xtick_5">
     <g id="line2d_5">
      <g>
       <use xlink:href="#m3d93b6018e" x="525.280988" y="448.56" style="stroke: #000000; stroke-width: 0.8"/>
      </g>
     </g>
     <g id="text_5">
      <!-- 0.8 -->
      <g transform="translate(517.329425 463.158437) scale(0.1 -0.1)">
       <defs>
        <path id="DejaVuSans-38" d="M 2034 2216 
Q 1584 2216 1326 1975 
Q 1069 1734 1069 1313 
Q 1069 891 1326 650 
Q 1584 409 2034 409 
Q 2484 409 2743 651 
Q 3003 894 3003 1313 
Q 3003 1734 2745 1975 
Q 2488 2216 2034 2216 
z
M 1403 2484 
Q 997 2584 770 2862 
Q 544 3141 544 3541 
Q 544 4100 942 4425 
Q 1341 4750 2034 4750 
Q 2731 4750 3128 4425 
Q 3525 4100 3525 3541 
Q 3525 3141 3298 2862 
Q 3072 2584 2669 2484 
Q 3125 2378 3379 2068 
Q 3634 1759 3634 1313 
Q 3634 634 3220 271 
Q 2806 -91 2034 -91 
Q 1263 -91 848 271 
Q 434 634 434 1313 
Q 434 1759 690 2068 
Q 947 2378 1403 2484 
z
M 1172 3481 
Q 1172 3119 1398 2916 
Q 1625 2713 2034 2713 
Q 2441 2713 2670 2916 
Q 2900 3119 2900 3481 
Q 2900 3844 2670 4047 
Q 2441 4250 2034 4250 
Q 1625 4250 1398 4047 
Q 1172 3844 1172 3481 
z
" transform="scale(0.015625)"/>
       </defs>
       <use xlink:href="#DejaVuSans-30"/>
       <use xlink:href="#DejaVuSans-2e" x="63.623047"/>
       <use xlink:href="#DejaVuSans-38" x="95.410156"/>
      </g>
     </g>
    </g>
    <g id="xtick_6">
     <g id="line2d_6">
      <g>
       <use xlink:href="#m3d93b6018e" x="627.760326" y="448.56" style="stroke: #000000; stroke-width: 0.8"/>
      </g>
     </g>
     <g id="text_6">
      <!-- 1.0 -->
      <g transform="translate(619.808763 463.158437) scale(0.1 -0.1)">
       <defs>
        <path id="DejaVuSans-31" d="M 794 531 
L 1825 531 
L 1825 4091 
L 703 3866 
L 703 4441 
L 1819 4666 
L 2450 4666 
L 2450 531 
L 3481 531 
L 3481 0 
L 794 0 
L 794 531 
z
" transform="scale(0.015625)"/>
       </defs>
       <use xlink:href="#DejaVuSans-31"/>
       <use xlink:href="#DejaVuSans-2e" x="63.623047"/>
       <use xlink:href="#DejaVuSans-30" x="95.410156"/>
      </g>
     </g>
    </g>
   </g>
   <g id="matplotlib.axis_2">
    <g id="ytick_1">
     <g id="line2d_7">
      <defs>
       <path id="m6f7ff5e21b" d="M 0 0 
L -3.5 0 
" style="stroke: #000000; stroke-width: 0.8"/>
      </defs>
      <g>
       <use xlink:href="#m6f7ff5e21b" x="90" y="430.919972" style="stroke: #000000; stroke-width: 0.8"/>
      </g>
     </g>
     <g id="text_7">
      <!-- 0.90 -->
      <g transform="translate(60.734375 434.71919) scale(0.1 -0.1)">
       <defs>
        <path id="DejaVuSans-39" d="M 703 97 
L 703 672 
Q 941 559 1184 500 
Q 1428 441 1663 441 
Q 2288 441 2617 861 
Q 2947 1281 2994 2138 
Q 2813 1869 2534 1725 
Q 2256 1581 1919 1581 
Q 1219 1581 811 2004 
Q 403 2428 403 3163 
Q 403 3881 828 4315 
Q 1253 4750 1959 4750 
Q 2769 4750 3195 4129 
Q 3622 3509 3622 2328 
Q 3622 1225 3098 567 
Q 2575 -91 1691 -91 
Q 1453 -91 1209 -44 
Q 966 3 703 97 
z
M 1959 2075 
Q 2384 2075 2632 2365 
Q 2881 2656 2881 3163 
Q 2881 3666 2632 3958 
Q 2384 4250 1959 4250 
Q 1534 4250 1286 3958 
Q 1038 3666 1038 3163 
Q 1038 2656 1286 2365 
Q 1534 2075 1959 2075 
z
" transform="scale(0.015625)"/>
       </defs>
       <use xlink:href="#DejaVuSans-30"/>
       <use xlink:href="#DejaVuSans-2e" x="63.623047"/>
       <use xlink:href="#DejaVuSans-39" x="95.410156"/>
       <use xlink:href="#DejaVuSans-30" x="159.033203"/>
      </g>
     </g>
    </g>
    <g id="ytick_2">
     <g id="line2d_8">
      <g>
       <use xlink:href="#m6f7ff5e21b" x="90" y="371.526042" style="stroke: #000000; stroke-width: 0.8"/>
      </g>
     </g>
     <g id="text_8">
      <!-- 0.95 -->
      <g transform="translate(60.734375 375.325261) scale(0.1 -0.1)">
       <defs>
        <path id="DejaVuSans-35" d="M 691 4666 
L 3169 4666 
L 3169 4134 
L 1269 4134 
L 1269 2991 
Q 1406 3038 1543 3061 
Q 1681 3084 1819 3084 
Q 2600 3084 3056 2656 
Q 3513 2228 3513 1497 
Q 3513 744 3044 326 
Q 2575 -91 1722 -91 
Q 1428 -91 1123 -41 
Q 819 9 494 109 
L 494 744 
Q 775 591 1075 516 
Q 1375 441 1709 441 
Q 2250 441 2565 725 
Q 2881 1009 2881 1497 
Q 2881 1984 2565 2268 
Q 2250 2553 1709 2553 
Q 1456 2553 1204 2497 
Q 953 2441 691 2322 
L 691 4666 
z
" transform="scale(0.015625)"/>
       </defs>
       <use xlink:href="#DejaVuSans-30"/>
       <use xlink:href="#DejaVuSans-2e" x="63.623047"/>
       <use xlink:href="#DejaVuSans-39" x="95.410156"/>
       <use xlink:href="#DejaVuSans-35" x="159.033203"/>
      </g>
     </g>
    </g>
    <g id="ytick_3">
     <g id="line2d_9">
      <g>
       <use xlink:href="#m6f7ff5e21b" x="90" y="312.132113" style="stroke: #000000; stroke-width: 0.8"/>
      </g>
     </g>
     <g id="text_9">
      <!-- 1.00 -->
      <g transform="translate(60.734375 315.931332) scale(0.1 -0.1)">
       <use xlink:href="#DejaVuSans-31"/>
       <use xlink:href="#DejaVuSans-2e" x="63.623047"/>
       <use xlink:href="#DejaVuSans-30" x="95.410156"/>
       <use xlink:href="#DejaVuSans-30" x="159.033203"/>
      </g>
     </g>
    </g>
    <g id="ytick_4">
     <g id="line2d_10">
      <g>
       <use xlink:href="#m6f7ff5e21b" x="90" y="252.738184" style="stroke: #000000; stroke-width: 0.8"/>
      </g>
     </g>
     <g id="text_10">
      <!-- 1.05 -->
      <g transform="translate(60.734375 256.537403) scale(0.1 -0.1)">
       <use xlink:href="#DejaVuSans-31"/>
       <use xlink:href="#DejaVuSans-2e" x="63.623047"/>
       <use xlink:href="#DejaVuSans-30" x="95.410156"/>
       <use xlink:href="#DejaVuSans-35" x="159.033203"/>
      </g>
     </g>
    </g>
    <g id="ytick_5">
     <g id="line2d_11">
      <g>
       <use xlink:href="#m6f7ff5e21b" x="90" y="193.344255" style="stroke: #000000; stroke-width: 0.8"/>
      </g>
     </g>
     <g id="text_11">
      <!-- 1.10 -->
      <g transform="translate(60.734375 197.143473) scale(0.1 -0.1)">
       <use xlink:href="#DejaVuSans-31"/>
       <use xlink:href="#DejaVuSans-2e" x="63.623047"/>
       <use xlink:href="#DejaVuSans-31" x="95.410156"/>
       <use xlink:href="#DejaVuSans-30" x="159.033203"/>
      </g>
     </g>
    </g>
    <g id="ytick_6">
     <g id="line2d_12">
      <g>
       <use xlink:href="#m6f7ff5e21b" x="90" y="133.950325" style="stroke: #000000; stroke-width: 0.8"/>
      </g>
     </g>
     <g id="text_12">
      <!-- 1.15 -->
      <g transform="translate(60.734375 137.749544) scale(0.1 -0.1)">
       <use xlink:href="#DejaVuSans-31"/>
       <use xlink:href="#DejaVuSans-2e" x="63.623047"/>
       <use xlink:href="#DejaVuSans-31" x="95.410156"/>
       <use xlink:href="#DejaVuSans-35" x="159.033203"/>
      </g>
     </g>
    </g>
    <g id="ytick_7">
     <g id="line2d_13">
      <g>
       <use xlink:href="#m6f7ff5e21b" x="90" y="74.556396" style="stroke: #000000; stroke-width: 0.8"/>
      </g>
     </g>
     <g id="text_13">
      <!-- 1.20 -->
      <g transform="translate(60.734375 78.355615) scale(0.1 -0.1)">
       <use xlink:href="#DejaVuSans-31"/>
       <use xlink:href="#DejaVuSans-2e" x="63.623047"/>
       <use xlink:href="#DejaVuSans-32" x="95.410156"/>
       <use xlink:href="#DejaVuSans-30" x="159.033203"/>
      </g>
     </g>
    </g>
   </g>
   <g id="patch_3">
    <path d="M 90 448.56 
L 90 60.48 
" style="fill: none; stroke: #000000; stroke-width: 0.8; stroke-linejoin: miter; stroke-linecap: square"/>
   </g>
   <g id="patch_4">
    <path d="M 648 448.56 
L 648 60.48 
" style="fill: none; stroke: #000000; stroke-width: 0.8; stroke-linejoin: miter; stroke-linecap: square"/>
   </g>
   <g id="patch_5">
    <path d="M 90 448.56 
L 648 448.56 
" style="fill: none; stroke: #000000; stroke-width: 0.8; stroke-linejoin: miter; stroke-linecap: square"/>
   </g>
   <g id="patch_6">
    <path d="M 90 60.48 
L 648 60.48 
" style="fill: none; stroke: #000000; stroke-width: 0.8; stroke-linejoin: miter; stroke-linecap: square"/>
   </g>
   <g id="legend_1">
    <g id="patch_7">
     <path d="M 99.8 112.77875 
L 237.70875 112.77875 
Q 240.50875 112.77875 240.50875 109.97875 
L 240.50875 70.28 
Q 240.50875 67.48 237.70875 67.48 
L 99.8 67.48 
Q 97 67.48 97 70.28 
L 97 109.97875 
Q 97 112.77875 99.8 112.77875 
z
" style="fill: #ffffff; opacity: 0.8; stroke: #cccccc; stroke-linejoin: miter"/>
    </g>
    <g id="PathCollection_3">
     <g>
      <use xlink:href="#m89a9e4cf87" x="116.6" y="80.042812" style="fill: #0000ff; stroke: #0000ff"/>
     </g>
    </g>
    <g id="text_14">
     <!-- Training Data -->
     <g transform="translate(141.8 83.717812) scale(0.14 -0.14)">
      <defs>
       <path id="DejaVuSans-54" d="M -19 4666 
L 3928 4666 
L 3928 4134 
L 2272 4134 
L 2272 0 
L 1638 0 
L 1638 4134 
L -19 4134 
L -19 4666 
z
" transform="scale(0.015625)"/>
       <path id="DejaVuSans-72" d="M 2631 2963 
Q 2534 3019 2420 3045 
Q 2306 3072 2169 3072 
Q 1681 3072 1420 2755 
Q 1159 2438 1159 1844 
L 1159 0 
L 581 0 
L 581 3500 
L 1159 3500 
L 1159 2956 
Q 1341 3275 1631 3429 
Q 1922 3584 2338 3584 
Q 2397 3584 2469 3576 
Q 2541 3569 2628 3553 
L 2631 2963 
z
" transform="scale(0.015625)"/>
       <path id="DejaVuSans-61" d="M 2194 1759 
Q 1497 1759 1228 1600 
Q 959 1441 959 1056 
Q 959 750 1161 570 
Q 1363 391 1709 391 
Q 2188 391 2477 730 
Q 2766 1069 2766 1631 
L 2766 1759 
L 2194 1759 
z
M 3341 1997 
L 3341 0 
L 2766 0 
L 2766 531 
Q 2569 213 2275 61 
Q 1981 -91 1556 -91 
Q 1019 -91 701 211 
Q 384 513 384 1019 
Q 384 1609 779 1909 
Q 1175 2209 1959 2209 
L 2766 2209 
L 2766 2266 
Q 2766 2663 2505 2880 
Q 2244 3097 1772 3097 
Q 1472 3097 1187 3025 
Q 903 2953 641 2809 
L 641 3341 
Q 956 3463 1253 3523 
Q 1550 3584 1831 3584 
Q 2591 3584 2966 3190 
Q 3341 2797 3341 1997 
z
" transform="scale(0.015625)"/>
       <path id="DejaVuSans-69" d="M 603 3500 
L 1178 3500 
L 1178 0 
L 603 0 
L 603 3500 
z
M 603 4863 
L 1178 4863 
L 1178 4134 
L 603 4134 
L 603 4863 
z
" transform="scale(0.015625)"/>
       <path id="DejaVuSans-6e" d="M 3513 2113 
L 3513 0 
L 2938 0 
L 2938 2094 
Q 2938 2591 2744 2837 
Q 2550 3084 2163 3084 
Q 1697 3084 1428 2787 
Q 1159 2491 1159 1978 
L 1159 0 
L 581 0 
L 581 3500 
L 1159 3500 
L 1159 2956 
Q 1366 3272 1645 3428 
Q 1925 3584 2291 3584 
Q 2894 3584 3203 3211 
Q 3513 2838 3513 2113 
z
" transform="scale(0.015625)"/>
       <path id="DejaVuSans-67" d="M 2906 1791 
Q 2906 2416 2648 2759 
Q 2391 3103 1925 3103 
Q 1463 3103 1205 2759 
Q 947 2416 947 1791 
Q 947 1169 1205 825 
Q 1463 481 1925 481 
Q 2391 481 2648 825 
Q 2906 1169 2906 1791 
z
M 3481 434 
Q 3481 -459 3084 -895 
Q 2688 -1331 1869 -1331 
Q 1566 -1331 1297 -1286 
Q 1028 -1241 775 -1147 
L 775 -588 
Q 1028 -725 1275 -790 
Q 1522 -856 1778 -856 
Q 2344 -856 2625 -561 
Q 2906 -266 2906 331 
L 2906 616 
Q 2728 306 2450 153 
Q 2172 0 1784 0 
Q 1141 0 747 490 
Q 353 981 353 1791 
Q 353 2603 747 3093 
Q 1141 3584 1784 3584 
Q 2172 3584 2450 3431 
Q 2728 3278 2906 2969 
L 2906 3500 
L 3481 3500 
L 3481 434 
z
" transform="scale(0.015625)"/>
       <path id="DejaVuSans-20" transform="scale(0.015625)"/>
       <path id="DejaVuSans-44" d="M 1259 4147 
L 1259 519 
L 2022 519 
Q 2988 519 3436 956 
Q 3884 1394 3884 2338 
Q 3884 3275 3436 3711 
Q 2988 4147 2022 4147 
L 1259 4147 
z
M 628 4666 
L 1925 4666 
Q 3281 4666 3915 4102 
Q 4550 3538 4550 2338 
Q 4550 1131 3912 565 
Q 3275 0 1925 0 
L 628 0 
L 628 4666 
z
" transform="scale(0.015625)"/>
       <path id="DejaVuSans-74" d="M 1172 4494 
L 1172 3500 
L 2356 3500 
L 2356 3053 
L 1172 3053 
L 1172 1153 
Q 1172 725 1289 603 
Q 1406 481 1766 481 
L 2356 481 
L 2356 0 
L 1766 0 
Q 1100 0 847 248 
Q 594 497 594 1153 
L 594 3053 
L 172 3053 
L 172 3500 
L 594 3500 
L 594 4494 
L 1172 4494 
z
" transform="scale(0.015625)"/>
      </defs>
      <use xlink:href="#DejaVuSans-54"/>
      <use xlink:href="#DejaVuSans-72" x="46.333984"/>
      <use xlink:href="#DejaVuSans-61" x="87.447266"/>
      <use xlink:href="#DejaVuSans-69" x="148.726562"/>
      <use xlink:href="#DejaVuSans-6e" x="176.509766"/>
      <use xlink:href="#DejaVuSans-69" x="239.888672"/>
      <use xlink:href="#DejaVuSans-6e" x="267.671875"/>
      <use xlink:href="#DejaVuSans-67" x="331.050781"/>
      <use xlink:href="#DejaVuSans-20" x="394.527344"/>
      <use xlink:href="#DejaVuSans-44" x="426.314453"/>
      <use xlink:href="#DejaVuSans-61" x="503.316406"/>
      <use xlink:href="#DejaVuSans-74" x="564.595703"/>
      <use xlink:href="#DejaVuSans-61" x="603.804688"/>
     </g>
    </g>
    <g id="PathCollection_4">
     <g>
      <use xlink:href="#m28f6d1d8ec" x="116.6" y="100.592187" style="fill: #008000; stroke: #008000"/>
     </g>
    </g>
    <g id="text_15">
     <!-- Testing Data -->
     <g transform="translate(141.8 104.267187) scale(0.14 -0.14)">
      <defs>
       <path id="DejaVuSans-65" d="M 3597 1894 
L 3597 1613 
L 953 1613 
Q 991 1019 1311 708 
Q 1631 397 2203 397 
Q 2534 397 2845 478 
Q 3156 559 3463 722 
L 3463 178 
Q 3153 47 2828 -22 
Q 2503 -91 2169 -91 
Q 1331 -91 842 396 
Q 353 884 353 1716 
Q 353 2575 817 3079 
Q 1281 3584 2069 3584 
Q 2775 3584 3186 3129 
Q 3597 2675 3597 1894 
z
M 3022 2063 
Q 3016 2534 2758 2815 
Q 2500 3097 2075 3097 
Q 1594 3097 1305 2825 
Q 1016 2553 972 2059 
L 3022 2063 
z
" transform="scale(0.015625)"/>
       <path id="DejaVuSans-73" d="M 2834 3397 
L 2834 2853 
Q 2591 2978 2328 3040 
Q 2066 3103 1784 3103 
Q 1356 3103 1142 2972 
Q 928 2841 928 2578 
Q 928 2378 1081 2264 
Q 1234 2150 1697 2047 
L 1894 2003 
Q 2506 1872 2764 1633 
Q 3022 1394 3022 966 
Q 3022 478 2636 193 
Q 2250 -91 1575 -91 
Q 1294 -91 989 -36 
Q 684 19 347 128 
L 347 722 
Q 666 556 975 473 
Q 1284 391 1588 391 
Q 1994 391 2212 530 
Q 2431 669 2431 922 
Q 2431 1156 2273 1281 
Q 2116 1406 1581 1522 
L 1381 1569 
Q 847 1681 609 1914 
Q 372 2147 372 2553 
Q 372 3047 722 3315 
Q 1072 3584 1716 3584 
Q 2034 3584 2315 3537 
Q 2597 3491 2834 3397 
z
" transform="scale(0.015625)"/>
      </defs>
      <use xlink:href="#DejaVuSans-54"/>
      <use xlink:href="#DejaVuSans-65" x="44.083984"/>
      <use xlink:href="#DejaVuSans-73" x="105.607422"/>
      <use xlink:href="#DejaVuSans-74" x="157.707031"/>
      <use xlink:href="#DejaVuSans-69" x="196.916016"/>
      <use xlink:href="#DejaVuSans-6e" x="224.699219"/>
      <use xlink:href="#DejaVuSans-67" x="288.078125"/>
      <use xlink:href="#DejaVuSans-20" x="351.554688"/>
      <use xlink:href="#DejaVuSans-44" x="383.341797"/>
      <use xlink:href="#DejaVuSans-61" x="460.34375"/>
      <use xlink:href="#DejaVuSans-74" x="521.623047"/>
      <use xlink:href="#DejaVuSans-61" x="560.832031"/>
     </g>
    </g>
   </g>
  </g>
 </g>
 <defs>
  <clipPath id="pc6f56959af">
   <rect x="90" y="60.48" width="558" height="388.08"/>
  </clipPath>
 </defs>
</svg>
