<?xml version="1.0" encoding="utf-8" standalone="no"?>
<!DOCTYPE svg PUBLIC "-//W3C//DTD SVG 1.1//EN"
  "http://www.w3.org/Graphics/SVG/1.1/DTD/svg11.dtd">
<svg xmlns:xlink="http://www.w3.org/1999/xlink" width="720pt" height="504pt" viewBox="0 0 720 504" xmlns="http://www.w3.org/2000/svg" version="1.1">
 <metadata>
  <rdf:RDF xmlns:dc="http://purl.org/dc/elements/1.1/" xmlns:cc="http://creativecommons.org/ns#" xmlns:rdf="http://www.w3.org/1999/02/22-rdf-syntax-ns#">
   <cc:Work>
    <dc:type rdf:resource="http://purl.org/dc/dcmitype/StillImage"/>
    <dc:date>2024-06-03T06:33:41.005004</dc:date>
    <dc:format>image/svg+xml</dc:format>
    <dc:creator>
     <cc:Agent>
      <dc:title>Matplotlib v3.8.4, https://matplotlib.org/</dc:title>
     </cc:Agent>
    </dc:creator>
   </cc:Work>
  </rdf:RDF>
 </metadata>
 <defs>
  <style type="text/css">*{stroke-linejoin: round; stroke-linecap: butt}</style>
 </defs>
 <g id="figure_1">
  <g id="patch_1">
   <path d="M 0 504 
L 720 504 
L 720 0 
L 0 0 
z
" style="fill: #ffffff"/>
  </g>
  <g id="axes_1">
   <g id="patch_2">
    <path d="M 90 448.56 
L 648 448.56 
L 648 60.48 
L 90 60.48 
z
" style="fill: #ffffff"/>
   </g>
   <g id="PathCollection_1">
    <defs>
     <path id="m16ddf3f5f6" d="M 0 1 
C 0.265203 1 0.51958 0.894634 0.707107 0.707107 
C 0.894634 0.51958 1 0.265203 1 0 
C 1 -0.265203 0.894634 -0.51958 0.707107 -0.707107 
C 0.51958 -0.894634 0.265203 -1 0 -1 
C -0.265203 -1 -0.51958 -0.894634 -0.707107 -0.707107 
C -0.894634 -0.51958 -1 -0.265203 -1 0 
C -1 0.265203 -0.894634 0.51958 -0.707107 0.707107 
C -0.51958 0.894634 -0.265203 1 0 1 
z
" style="stroke: #0000ff"/>
    </defs>
    <g clip-path="url(#pf238608aad)">
     <use xlink:href="#m16ddf3f5f6" x="115.363636" y="430.92" style="fill: #0000ff; stroke: #0000ff"/>
     <use xlink:href="#m16ddf3f5f6" x="120.487603" y="427.446181" style="fill: #0000ff; stroke: #0000ff"/>
     <use xlink:href="#m16ddf3f5f6" x="125.61157" y="423.97243" style="fill: #0000ff; stroke: #0000ff"/>
     <use xlink:href="#m16ddf3f5f6" x="130.735537" y="420.498611" style="fill: #0000ff; stroke: #0000ff"/>
     <use xlink:href="#m16ddf3f5f6" x="135.859503" y="417.024791" style="fill: #0000ff; stroke: #0000ff"/>
     <use xlink:href="#m16ddf3f5f6" x="140.983471" y="413.551041" style="fill: #0000ff; stroke: #0000ff"/>
     <use xlink:href="#m16ddf3f5f6" x="146.107437" y="410.077222" style="fill: #0000ff; stroke: #0000ff"/>
     <use xlink:href="#m16ddf3f5f6" x="151.231405" y="406.603402" style="fill: #0000ff; stroke: #0000ff"/>
     <use xlink:href="#m16ddf3f5f6" x="156.355371" y="403.129652" style="fill: #0000ff; stroke: #0000ff"/>
     <use xlink:href="#m16ddf3f5f6" x="161.479336" y="399.655832" style="fill: #0000ff; stroke: #0000ff"/>
     <use xlink:href="#m16ddf3f5f6" x="166.603306" y="396.182082" style="fill: #0000ff; stroke: #0000ff"/>
     <use xlink:href="#m16ddf3f5f6" x="171.727272" y="392.708263" style="fill: #0000ff; stroke: #0000ff"/>
     <use xlink:href="#m16ddf3f5f6" x="176.851238" y="389.234443" style="fill: #0000ff; stroke: #0000ff"/>
     <use xlink:href="#m16ddf3f5f6" x="181.975204" y="385.760693" style="fill: #0000ff; stroke: #0000ff"/>
     <use xlink:href="#m16ddf3f5f6" x="187.099173" y="382.286873" style="fill: #0000ff; stroke: #0000ff"/>
     <use xlink:href="#m16ddf3f5f6" x="192.223135" y="378.813054" style="fill: #0000ff; stroke: #0000ff"/>
     <use xlink:href="#m16ddf3f5f6" x="197.347105" y="375.339304" style="fill: #0000ff; stroke: #0000ff"/>
     <use xlink:href="#m16ddf3f5f6" x="202.471074" y="371.865484" style="fill: #0000ff; stroke: #0000ff"/>
     <use xlink:href="#m16ddf3f5f6" x="207.595036" y="368.391665" style="fill: #0000ff; stroke: #0000ff"/>
     <use xlink:href="#m16ddf3f5f6" x="212.719006" y="364.917914" style="fill: #0000ff; stroke: #0000ff"/>
     <use xlink:href="#m16ddf3f5f6" x="217.842976" y="361.444095" style="fill: #0000ff; stroke: #0000ff"/>
     <use xlink:href="#m16ddf3f5f6" x="222.966938" y="357.970276" style="fill: #0000ff; stroke: #0000ff"/>
     <use xlink:href="#m16ddf3f5f6" x="228.090907" y="354.496525" style="fill: #0000ff; stroke: #0000ff"/>
     <use xlink:href="#m16ddf3f5f6" x="233.214869" y="351.022706" style="fill: #0000ff; stroke: #0000ff"/>
     <use xlink:href="#m16ddf3f5f6" x="238.338839" y="347.548886" style="fill: #0000ff; stroke: #0000ff"/>
     <use xlink:href="#m16ddf3f5f6" x="243.462809" y="344.075136" style="fill: #0000ff; stroke: #0000ff"/>
     <use xlink:href="#m16ddf3f5f6" x="248.586771" y="340.601317" style="fill: #0000ff; stroke: #0000ff"/>
     <use xlink:href="#m16ddf3f5f6" x="253.710733" y="337.127566" style="fill: #0000ff; stroke: #0000ff"/>
     <use xlink:href="#m16ddf3f5f6" x="258.83471" y="333.653747" style="fill: #0000ff; stroke: #0000ff"/>
     <use xlink:href="#m16ddf3f5f6" x="263.958672" y="330.179927" style="fill: #0000ff; stroke: #0000ff"/>
     <use xlink:href="#m16ddf3f5f6" x="269.082634" y="326.706177" style="fill: #0000ff; stroke: #0000ff"/>
     <use xlink:href="#m16ddf3f5f6" x="274.206611" y="323.232358" style="fill: #0000ff; stroke: #0000ff"/>
     <use xlink:href="#m16ddf3f5f6" x="279.330573" y="319.758538" style="fill: #0000ff; stroke: #0000ff"/>
     <use xlink:href="#m16ddf3f5f6" x="284.454535" y="316.284788" style="fill: #0000ff; stroke: #0000ff"/>
     <use xlink:href="#m16ddf3f5f6" x="289.578513" y="312.810968" style="fill: #0000ff; stroke: #0000ff"/>
     <use xlink:href="#m16ddf3f5f6" x="294.702475" y="309.337149" style="fill: #0000ff; stroke: #0000ff"/>
     <use xlink:href="#m16ddf3f5f6" x="299.826437" y="305.86333" style="fill: #0000ff; stroke: #0000ff"/>
     <use xlink:href="#m16ddf3f5f6" x="304.950414" y="302.38951" style="fill: #0000ff; stroke: #0000ff"/>
     <use xlink:href="#m16ddf3f5f6" x="310.074376" y="298.915829" style="fill: #0000ff; stroke: #0000ff"/>
     <use xlink:href="#m16ddf3f5f6" x="315.198338" y="295.442009" style="fill: #0000ff; stroke: #0000ff"/>
     <use xlink:href="#m16ddf3f5f6" x="320.322315" y="291.96819" style="fill: #0000ff; stroke: #0000ff"/>
     <use xlink:href="#m16ddf3f5f6" x="325.446277" y="288.494371" style="fill: #0000ff; stroke: #0000ff"/>
     <use xlink:href="#m16ddf3f5f6" x="330.570254" y="285.020551" style="fill: #0000ff; stroke: #0000ff"/>
     <use xlink:href="#m16ddf3f5f6" x="335.694216" y="281.546732" style="fill: #0000ff; stroke: #0000ff"/>
     <use xlink:href="#m16ddf3f5f6" x="340.818178" y="278.07305" style="fill: #0000ff; stroke: #0000ff"/>
     <use xlink:href="#m16ddf3f5f6" x="345.942156" y="274.599231" style="fill: #0000ff; stroke: #0000ff"/>
     <use xlink:href="#m16ddf3f5f6" x="351.066118" y="271.125412" style="fill: #0000ff; stroke: #0000ff"/>
     <use xlink:href="#m16ddf3f5f6" x="356.19008" y="267.651592" style="fill: #0000ff; stroke: #0000ff"/>
     <use xlink:href="#m16ddf3f5f6" x="361.314042" y="264.177773" style="fill: #0000ff; stroke: #0000ff"/>
     <use xlink:href="#m16ddf3f5f6" x="366.438004" y="260.704091" style="fill: #0000ff; stroke: #0000ff"/>
     <use xlink:href="#m16ddf3f5f6" x="371.561981" y="257.230272" style="fill: #0000ff; stroke: #0000ff"/>
     <use xlink:href="#m16ddf3f5f6" x="376.685943" y="253.756453" style="fill: #0000ff; stroke: #0000ff"/>
     <use xlink:href="#m16ddf3f5f6" x="381.809905" y="250.282633" style="fill: #0000ff; stroke: #0000ff"/>
     <use xlink:href="#m16ddf3f5f6" x="386.933867" y="246.808814" style="fill: #0000ff; stroke: #0000ff"/>
     <use xlink:href="#m16ddf3f5f6" x="392.057829" y="243.334994" style="fill: #0000ff; stroke: #0000ff"/>
     <use xlink:href="#m16ddf3f5f6" x="397.181822" y="239.861313" style="fill: #0000ff; stroke: #0000ff"/>
     <use xlink:href="#m16ddf3f5f6" x="402.305784" y="236.387494" style="fill: #0000ff; stroke: #0000ff"/>
     <use xlink:href="#m16ddf3f5f6" x="407.429746" y="232.913674" style="fill: #0000ff; stroke: #0000ff"/>
     <use xlink:href="#m16ddf3f5f6" x="412.553708" y="229.439855" style="fill: #0000ff; stroke: #0000ff"/>
     <use xlink:href="#m16ddf3f5f6" x="417.67767" y="225.966035" style="fill: #0000ff; stroke: #0000ff"/>
     <use xlink:href="#m16ddf3f5f6" x="422.801662" y="222.492354" style="fill: #0000ff; stroke: #0000ff"/>
     <use xlink:href="#m16ddf3f5f6" x="427.925624" y="219.018535" style="fill: #0000ff; stroke: #0000ff"/>
     <use xlink:href="#m16ddf3f5f6" x="433.049586" y="215.544715" style="fill: #0000ff; stroke: #0000ff"/>
     <use xlink:href="#m16ddf3f5f6" x="438.173548" y="212.070896" style="fill: #0000ff; stroke: #0000ff"/>
     <use xlink:href="#m16ddf3f5f6" x="443.29751" y="208.597076" style="fill: #0000ff; stroke: #0000ff"/>
     <use xlink:href="#m16ddf3f5f6" x="448.421472" y="205.123257" style="fill: #0000ff; stroke: #0000ff"/>
     <use xlink:href="#m16ddf3f5f6" x="453.545434" y="201.649576" style="fill: #0000ff; stroke: #0000ff"/>
     <use xlink:href="#m16ddf3f5f6" x="458.669396" y="198.175756" style="fill: #0000ff; stroke: #0000ff"/>
     <use xlink:href="#m16ddf3f5f6" x="463.793389" y="194.701937" style="fill: #0000ff; stroke: #0000ff"/>
     <use xlink:href="#m16ddf3f5f6" x="468.917351" y="191.228117" style="fill: #0000ff; stroke: #0000ff"/>
     <use xlink:href="#m16ddf3f5f6" x="474.041313" y="187.754298" style="fill: #0000ff; stroke: #0000ff"/>
     <use xlink:href="#m16ddf3f5f6" x="479.165275" y="184.280617" style="fill: #0000ff; stroke: #0000ff"/>
     <use xlink:href="#m16ddf3f5f6" x="484.289267" y="180.806797" style="fill: #0000ff; stroke: #0000ff"/>
     <use xlink:href="#m16ddf3f5f6" x="489.413229" y="177.332978" style="fill: #0000ff; stroke: #0000ff"/>
     <use xlink:href="#m16ddf3f5f6" x="494.537191" y="173.859159" style="fill: #0000ff; stroke: #0000ff"/>
     <use xlink:href="#m16ddf3f5f6" x="499.661153" y="170.385339" style="fill: #0000ff; stroke: #0000ff"/>
     <use xlink:href="#m16ddf3f5f6" x="504.785146" y="166.91152" style="fill: #0000ff; stroke: #0000ff"/>
     <use xlink:href="#m16ddf3f5f6" x="509.909108" y="163.4377" style="fill: #0000ff; stroke: #0000ff"/>
     <use xlink:href="#m16ddf3f5f6" x="515.03307" y="159.964019" style="fill: #0000ff; stroke: #0000ff"/>
     <use xlink:href="#m16ddf3f5f6" x="520.157032" y="156.4902" style="fill: #0000ff; stroke: #0000ff"/>
    </g>
   </g>
   <g id="PathCollection_2">
    <defs>
     <path id="m5de816925f" d="M 0 1 
C 0.265203 1 0.51958 0.894634 0.707107 0.707107 
C 0.894634 0.51958 1 0.265203 1 0 
C 1 -0.265203 0.894634 -0.51958 0.707107 -0.707107 
C 0.51958 -0.894634 0.265203 -1 0 -1 
C -0.265203 -1 -0.51958 -0.894634 -0.707107 -0.707107 
C -0.894634 -0.51958 -1 -0.265203 -1 0 
C -1 0.265203 -0.894634 0.51958 -0.707107 0.707107 
C -0.51958 0.894634 -0.265203 1 0 1 
z
" style="stroke: #008000"/>
    </defs>
    <g clip-path="url(#pf238608aad)">
     <use xlink:href="#m5de816925f" x="525.280994" y="153.01638" style="fill: #008000; stroke: #008000"/>
     <use xlink:href="#m5de816925f" x="530.404956" y="149.542561" style="fill: #008000; stroke: #008000"/>
     <use xlink:href="#m5de816925f" x="535.528918" y="146.068741" style="fill: #008000; stroke: #008000"/>
     <use xlink:href="#m5de816925f" x="540.65288" y="142.59506" style="fill: #008000; stroke: #008000"/>
     <use xlink:href="#m5de816925f" x="545.776872" y="139.121241" style="fill: #008000; stroke: #008000"/>
     <use xlink:href="#m5de816925f" x="550.900834" y="135.647421" style="fill: #008000; stroke: #008000"/>
     <use xlink:href="#m5de816925f" x="556.024796" y="132.173602" style="fill: #008000; stroke: #008000"/>
     <use xlink:href="#m5de816925f" x="561.148758" y="128.699782" style="fill: #008000; stroke: #008000"/>
     <use xlink:href="#m5de816925f" x="566.27272" y="125.225963" style="fill: #008000; stroke: #008000"/>
     <use xlink:href="#m5de816925f" x="571.396682" y="121.752144" style="fill: #008000; stroke: #008000"/>
     <use xlink:href="#m5de816925f" x="576.520644" y="118.278462" style="fill: #008000; stroke: #008000"/>
     <use xlink:href="#m5de816925f" x="581.644607" y="114.804643" style="fill: #008000; stroke: #008000"/>
     <use xlink:href="#m5de816925f" x="586.768599" y="111.330823" style="fill: #008000; stroke: #008000"/>
     <use xlink:href="#m5de816925f" x="591.892561" y="107.857004" style="fill: #008000; stroke: #008000"/>
     <use xlink:href="#m5de816925f" x="597.016523" y="104.383323" style="fill: #008000; stroke: #008000"/>
     <use xlink:href="#m5de816925f" x="602.140485" y="100.909503" style="fill: #008000; stroke: #008000"/>
     <use xlink:href="#m5de816925f" x="607.264447" y="97.435684" style="fill: #008000; stroke: #008000"/>
     <use xlink:href="#m5de816925f" x="612.38844" y="93.961864" style="fill: #008000; stroke: #008000"/>
     <use xlink:href="#m5de816925f" x="617.512402" y="90.488045" style="fill: #008000; stroke: #008000"/>
     <use xlink:href="#m5de816925f" x="622.636364" y="87.014226" style="fill: #008000; stroke: #008000"/>
    </g>
   </g>
   <g id="PathCollection_3">
    <defs>
     <path id="med9c05ce12" d="M 0 1 
C 0.265203 1 0.51958 0.894634 0.707107 0.707107 
C 0.894634 0.51958 1 0.265203 1 0 
C 1 -0.265203 0.894634 -0.51958 0.707107 -0.707107 
C 0.51958 -0.894634 0.265203 -1 0 -1 
C -0.265203 -1 -0.51958 -0.894634 -0.707107 -0.707107 
C -0.894634 -0.51958 -1 -0.265203 -1 0 
C -1 0.265203 -0.894634 0.51958 -0.707107 0.707107 
C -0.51958 0.894634 -0.265203 1 0 1 
z
" style="stroke: #ff0000"/>
    </defs>
    <g clip-path="url(#pf238608aad)">
     <use xlink:href="#med9c05ce12" x="525.280994" y="145.593483" style="fill: #ff0000; stroke: #ff0000"/>
     <use xlink:href="#med9c05ce12" x="530.404956" y="142.042363" style="fill: #ff0000; stroke: #ff0000"/>
     <use xlink:href="#med9c05ce12" x="535.528918" y="138.491105" style="fill: #ff0000; stroke: #ff0000"/>
     <use xlink:href="#med9c05ce12" x="540.65288" y="134.939847" style="fill: #ff0000; stroke: #ff0000"/>
     <use xlink:href="#med9c05ce12" x="545.776872" y="131.38859" style="fill: #ff0000; stroke: #ff0000"/>
     <use xlink:href="#med9c05ce12" x="550.900834" y="127.837332" style="fill: #ff0000; stroke: #ff0000"/>
     <use xlink:href="#med9c05ce12" x="556.024796" y="124.286074" style="fill: #ff0000; stroke: #ff0000"/>
     <use xlink:href="#med9c05ce12" x="561.148758" y="120.734817" style="fill: #ff0000; stroke: #ff0000"/>
     <use xlink:href="#med9c05ce12" x="566.27272" y="117.183697" style="fill: #ff0000; stroke: #ff0000"/>
     <use xlink:href="#med9c05ce12" x="571.396682" y="113.632439" style="fill: #ff0000; stroke: #ff0000"/>
     <use xlink:href="#med9c05ce12" x="576.520644" y="110.081181" style="fill: #ff0000; stroke: #ff0000"/>
     <use xlink:href="#med9c05ce12" x="581.644607" y="106.529924" style="fill: #ff0000; stroke: #ff0000"/>
     <use xlink:href="#med9c05ce12" x="586.768599" y="102.978666" style="fill: #ff0000; stroke: #ff0000"/>
     <use xlink:href="#med9c05ce12" x="591.892561" y="99.427408" style="fill: #ff0000; stroke: #ff0000"/>
     <use xlink:href="#med9c05ce12" x="597.016523" y="95.876151" style="fill: #ff0000; stroke: #ff0000"/>
     <use xlink:href="#med9c05ce12" x="602.140485" y="92.325031" style="fill: #ff0000; stroke: #ff0000"/>
     <use xlink:href="#med9c05ce12" x="607.264447" y="88.773773" style="fill: #ff0000; stroke: #ff0000"/>
     <use xlink:href="#med9c05ce12" x="612.38844" y="85.222515" style="fill: #ff0000; stroke: #ff0000"/>
     <use xlink:href="#med9c05ce12" x="617.512402" y="81.671258" style="fill: #ff0000; stroke: #ff0000"/>
     <use xlink:href="#med9c05ce12" x="622.636364" y="78.12" style="fill: #ff0000; stroke: #ff0000"/>
    </g>
   </g>
   <g id="matplotlib.axis_1">
    <g id="xtick_1">
     <g id="line2d_1">
      <defs>
       <path id="m9e5ae5b2dd" d="M 0 0 
L 0 3.5 
" style="stroke: #000000; stroke-width: 0.8"/>
      </defs>
      <g>
       <use xlink:href="#m9e5ae5b2dd" x="115.363636" y="448.56" style="stroke: #000000; stroke-width: 0.8"/>
      </g>
     </g>
     <g id="text_1">
      <!-- 0.0 -->
      <g transform="translate(107.412074 463.158437) scale(0.1 -0.1)">
       <defs>
        <path id="DejaVuSans-30" d="M 2034 4250 
Q 1547 4250 1301 3770 
Q 1056 3291 1056 2328 
Q 1056 1369 1301 889 
Q 1547 409 2034 409 
Q 2525 409 2770 889 
Q 3016 1369 3016 2328 
Q 3016 3291 2770 3770 
Q 2525 4250 2034 4250 
z
M 2034 4750 
Q 2819 4750 3233 4129 
Q 3647 3509 3647 2328 
Q 3647 1150 3233 529 
Q 2819 -91 2034 -91 
Q 1250 -91 836 529 
Q 422 1150 422 2328 
Q 422 3509 836 4129 
Q 1250 4750 2034 4750 
z
" transform="scale(0.015625)"/>
        <path id="DejaVuSans-2e" d="M 684 794 
L 1344 794 
L 1344 0 
L 684 0 
L 684 794 
z
" transform="scale(0.015625)"/>
       </defs>
       <use xlink:href="#DejaVuSans-30"/>
       <use xlink:href="#DejaVuSans-2e" x="63.623047"/>
       <use xlink:href="#DejaVuSans-30" x="95.410156"/>
      </g>
     </g>
    </g>
    <g id="xtick_2">
     <g id="line2d_2">
      <g>
       <use xlink:href="#m9e5ae5b2dd" x="217.842974" y="448.56" style="stroke: #000000; stroke-width: 0.8"/>
      </g>
     </g>
     <g id="text_2">
      <!-- 0.2 -->
      <g transform="translate(209.891412 463.158437) scale(0.1 -0.1)">
       <defs>
        <path id="DejaVuSans-32" d="M 1228 531 
L 3431 531 
L 3431 0 
L 469 0 
L 469 531 
Q 828 903 1448 1529 
Q 2069 2156 2228 2338 
Q 2531 2678 2651 2914 
Q 2772 3150 2772 3378 
Q 2772 3750 2511 3984 
Q 2250 4219 1831 4219 
Q 1534 4219 1204 4116 
Q 875 4013 500 3803 
L 500 4441 
Q 881 4594 1212 4672 
Q 1544 4750 1819 4750 
Q 2544 4750 2975 4387 
Q 3406 4025 3406 3419 
Q 3406 3131 3298 2873 
Q 3191 2616 2906 2266 
Q 2828 2175 2409 1742 
Q 1991 1309 1228 531 
z
" transform="scale(0.015625)"/>
       </defs>
       <use xlink:href="#DejaVuSans-30"/>
       <use xlink:href="#DejaVuSans-2e" x="63.623047"/>
       <use xlink:href="#DejaVuSans-32" x="95.410156"/>
      </g>
     </g>
    </g>
    <g id="xtick_3">
     <g id="line2d_3">
      <g>
       <use xlink:href="#m9e5ae5b2dd" x="320.322312" y="448.56" style="stroke: #000000; stroke-width: 0.8"/>
      </g>
     </g>
     <g id="text_3">
      <!-- 0.4 -->
      <g transform="translate(312.37075 463.158437) scale(0.1 -0.1)">
       <defs>
        <path id="DejaVuSans-34" d="M 2419 4116 
L 825 1625 
L 2419 1625 
L 2419 4116 
z
M 2253 4666 
L 3047 4666 
L 3047 1625 
L 3713 1625 
L 3713 1100 
L 3047 1100 
L 3047 0 
L 2419 0 
L 2419 1100 
L 313 1100 
L 313 1709 
L 2253 4666 
z
" transform="scale(0.015625)"/>
       </defs>
       <use xlink:href="#DejaVuSans-30"/>
       <use xlink:href="#DejaVuSans-2e" x="63.623047"/>
       <use xlink:href="#DejaVuSans-34" x="95.410156"/>
      </g>
     </g>
    </g>
    <g id="xtick_4">
     <g id="line2d_4">
      <g>
       <use xlink:href="#m9e5ae5b2dd" x="422.80165" y="448.56" style="stroke: #000000; stroke-width: 0.8"/>
      </g>
     </g>
     <g id="text_4">
      <!-- 0.6 -->
      <g transform="translate(414.850087 463.158437) scale(0.1 -0.1)">
       <defs>
        <path id="DejaVuSans-36" d="M 2113 2584 
Q 1688 2584 1439 2293 
Q 1191 2003 1191 1497 
Q 1191 994 1439 701 
Q 1688 409 2113 409 
Q 2538 409 2786 701 
Q 3034 994 3034 1497 
Q 3034 2003 2786 2293 
Q 2538 2584 2113 2584 
z
M 3366 4563 
L 3366 3988 
Q 3128 4100 2886 4159 
Q 2644 4219 2406 4219 
Q 1781 4219 1451 3797 
Q 1122 3375 1075 2522 
Q 1259 2794 1537 2939 
Q 1816 3084 2150 3084 
Q 2853 3084 3261 2657 
Q 3669 2231 3669 1497 
Q 3669 778 3244 343 
Q 2819 -91 2113 -91 
Q 1303 -91 875 529 
Q 447 1150 447 2328 
Q 447 3434 972 4092 
Q 1497 4750 2381 4750 
Q 2619 4750 2861 4703 
Q 3103 4656 3366 4563 
z
" transform="scale(0.015625)"/>
       </defs>
       <use xlink:href="#DejaVuSans-30"/>
       <use xlink:href="#DejaVuSans-2e" x="63.623047"/>
       <use xlink:href="#DejaVuSans-36" x="95.410156"/>
      </g>
     </g>
    </g>
    <g id="xtick_5">
     <g id="line2d_5">
      <g>
       <use xlink:href="#m9e5ae5b2dd" x="525.280988" y="448.56" style="stroke: #000000; stroke-width: 0.8"/>
      </g>
     </g>
     <g id="text_5">
      <!-- 0.8 -->
      <g transform="translate(517.329425 463.158437) scale(0.1 -0.1)">
       <defs>
        <path id="DejaVuSans-38" d="M 2034 2216 
Q 1584 2216 1326 1975 
Q 1069 1734 1069 1313 
Q 1069 891 1326 650 
Q 1584 409 2034 409 
Q 2484 409 2743 651 
Q 3003 894 3003 1313 
Q 3003 1734 2745 1975 
Q 2488 2216 2034 2216 
z
M 1403 2484 
Q 997 2584 770 2862 
Q 544 3141 544 3541 
Q 544 4100 942 4425 
Q 1341 4750 2034 4750 
Q 2731 4750 3128 4425 
Q 3525 4100 3525 3541 
Q 3525 3141 3298 2862 
Q 3072 2584 2669 2484 
Q 3125 2378 3379 2068 
Q 3634 1759 3634 1313 
Q 3634 634 3220 271 
Q 2806 -91 2034 -91 
Q 1263 -91 848 271 
Q 434 634 434 1313 
Q 434 1759 690 2068 
Q 947 2378 1403 2484 
z
M 1172 3481 
Q 1172 3119 1398 2916 
Q 1625 2713 2034 2713 
Q 2441 2713 2670 2916 
Q 2900 3119 2900 3481 
Q 2900 3844 2670 4047 
Q 2441 4250 2034 4250 
Q 1625 4250 1398 4047 
Q 1172 3844 1172 3481 
z
" transform="scale(0.015625)"/>
       </defs>
       <use xlink:href="#DejaVuSans-30"/>
       <use xlink:href="#DejaVuSans-2e" x="63.623047"/>
       <use xlink:href="#DejaVuSans-38" x="95.410156"/>
      </g>
     </g>
    </g>
    <g id="xtick_6">
     <g id="line2d_6">
      <g>
       <use xlink:href="#m9e5ae5b2dd" x="627.760326" y="448.56" style="stroke: #000000; stroke-width: 0.8"/>
      </g>
     </g>
     <g id="text_6">
      <!-- 1.0 -->
      <g transform="translate(619.808763 463.158437) scale(0.1 -0.1)">
       <defs>
        <path id="DejaVuSans-31" d="M 794 531 
L 1825 531 
L 1825 4091 
L 703 3866 
L 703 4441 
L 1819 4666 
L 2450 4666 
L 2450 531 
L 3481 531 
L 3481 0 
L 794 0 
L 794 531 
z
" transform="scale(0.015625)"/>
       </defs>
       <use xlink:href="#DejaVuSans-31"/>
       <use xlink:href="#DejaVuSans-2e" x="63.623047"/>
       <use xlink:href="#DejaVuSans-30" x="95.410156"/>
      </g>
     </g>
    </g>
   </g>
   <g id="matplotlib.axis_2">
    <g id="ytick_1">
     <g id="line2d_7">
      <defs>
       <path id="m3e1ae9beea" d="M 0 0 
L -3.5 0 
" style="stroke: #000000; stroke-width: 0.8"/>
      </defs>
      <g>
       <use xlink:href="#m3e1ae9beea" x="90" y="430.919972" style="stroke: #000000; stroke-width: 0.8"/>
      </g>
     </g>
     <g id="text_7">
      <!-- 0.90 -->
      <g transform="translate(60.734375 434.719191) scale(0.1 -0.1)">
       <defs>
        <path id="DejaVuSans-39" d="M 703 97 
L 703 672 
Q 941 559 1184 500 
Q 1428 441 1663 441 
Q 2288 441 2617 861 
Q 2947 1281 2994 2138 
Q 2813 1869 2534 1725 
Q 2256 1581 1919 1581 
Q 1219 1581 811 2004 
Q 403 2428 403 3163 
Q 403 3881 828 4315 
Q 1253 4750 1959 4750 
Q 2769 4750 3195 4129 
Q 3622 3509 3622 2328 
Q 3622 1225 3098 567 
Q 2575 -91 1691 -91 
Q 1453 -91 1209 -44 
Q 966 3 703 97 
z
M 1959 2075 
Q 2384 2075 2632 2365 
Q 2881 2656 2881 3163 
Q 2881 3666 2632 3958 
Q 2384 4250 1959 4250 
Q 1534 4250 1286 3958 
Q 1038 3666 1038 3163 
Q 1038 2656 1286 2365 
Q 1534 2075 1959 2075 
z
" transform="scale(0.015625)"/>
       </defs>
       <use xlink:href="#DejaVuSans-30"/>
       <use xlink:href="#DejaVuSans-2e" x="63.623047"/>
       <use xlink:href="#DejaVuSans-39" x="95.410156"/>
       <use xlink:href="#DejaVuSans-30" x="159.033203"/>
      </g>
     </g>
    </g>
    <g id="ytick_2">
     <g id="line2d_8">
      <g>
       <use xlink:href="#m3e1ae9beea" x="90" y="373.023387" style="stroke: #000000; stroke-width: 0.8"/>
      </g>
     </g>
     <g id="text_8">
      <!-- 0.95 -->
      <g transform="translate(60.734375 376.822606) scale(0.1 -0.1)">
       <defs>
        <path id="DejaVuSans-35" d="M 691 4666 
L 3169 4666 
L 3169 4134 
L 1269 4134 
L 1269 2991 
Q 1406 3038 1543 3061 
Q 1681 3084 1819 3084 
Q 2600 3084 3056 2656 
Q 3513 2228 3513 1497 
Q 3513 744 3044 326 
Q 2575 -91 1722 -91 
Q 1428 -91 1123 -41 
Q 819 9 494 109 
L 494 744 
Q 775 591 1075 516 
Q 1375 441 1709 441 
Q 2250 441 2565 725 
Q 2881 1009 2881 1497 
Q 2881 1984 2565 2268 
Q 2250 2553 1709 2553 
Q 1456 2553 1204 2497 
Q 953 2441 691 2322 
L 691 4666 
z
" transform="scale(0.015625)"/>
       </defs>
       <use xlink:href="#DejaVuSans-30"/>
       <use xlink:href="#DejaVuSans-2e" x="63.623047"/>
       <use xlink:href="#DejaVuSans-39" x="95.410156"/>
       <use xlink:href="#DejaVuSans-35" x="159.033203"/>
      </g>
     </g>
    </g>
    <g id="ytick_3">
     <g id="line2d_9">
      <g>
       <use xlink:href="#m3e1ae9beea" x="90" y="315.126802" style="stroke: #000000; stroke-width: 0.8"/>
      </g>
     </g>
     <g id="text_9">
      <!-- 1.00 -->
      <g transform="translate(60.734375 318.926021) scale(0.1 -0.1)">
       <use xlink:href="#DejaVuSans-31"/>
       <use xlink:href="#DejaVuSans-2e" x="63.623047"/>
       <use xlink:href="#DejaVuSans-30" x="95.410156"/>
       <use xlink:href="#DejaVuSans-30" x="159.033203"/>
      </g>
     </g>
    </g>
    <g id="ytick_4">
     <g id="line2d_10">
      <g>
       <use xlink:href="#m3e1ae9beea" x="90" y="257.230217" style="stroke: #000000; stroke-width: 0.8"/>
      </g>
     </g>
     <g id="text_10">
      <!-- 1.05 -->
      <g transform="translate(60.734375 261.029436) scale(0.1 -0.1)">
       <use xlink:href="#DejaVuSans-31"/>
       <use xlink:href="#DejaVuSans-2e" x="63.623047"/>
       <use xlink:href="#DejaVuSans-30" x="95.410156"/>
       <use xlink:href="#DejaVuSans-35" x="159.033203"/>
      </g>
     </g>
    </g>
    <g id="ytick_5">
     <g id="line2d_11">
      <g>
       <use xlink:href="#m3e1ae9beea" x="90" y="199.333632" style="stroke: #000000; stroke-width: 0.8"/>
      </g>
     </g>
     <g id="text_11">
      <!-- 1.10 -->
      <g transform="translate(60.734375 203.13285) scale(0.1 -0.1)">
       <use xlink:href="#DejaVuSans-31"/>
       <use xlink:href="#DejaVuSans-2e" x="63.623047"/>
       <use xlink:href="#DejaVuSans-31" x="95.410156"/>
       <use xlink:href="#DejaVuSans-30" x="159.033203"/>
      </g>
     </g>
    </g>
    <g id="ytick_6">
     <g id="line2d_12">
      <g>
       <use xlink:href="#m3e1ae9beea" x="90" y="141.437047" style="stroke: #000000; stroke-width: 0.8"/>
      </g>
     </g>
     <g id="text_12">
      <!-- 1.15 -->
      <g transform="translate(60.734375 145.236265) scale(0.1 -0.1)">
       <use xlink:href="#DejaVuSans-31"/>
       <use xlink:href="#DejaVuSans-2e" x="63.623047"/>
       <use xlink:href="#DejaVuSans-31" x="95.410156"/>
       <use xlink:href="#DejaVuSans-35" x="159.033203"/>
      </g>
     </g>
    </g>
    <g id="ytick_7">
     <g id="line2d_13">
      <g>
       <use xlink:href="#m3e1ae9beea" x="90" y="83.540461" style="stroke: #000000; stroke-width: 0.8"/>
      </g>
     </g>
     <g id="text_13">
      <!-- 1.20 -->
      <g transform="translate(60.734375 87.33968) scale(0.1 -0.1)">
       <use xlink:href="#DejaVuSans-31"/>
       <use xlink:href="#DejaVuSans-2e" x="63.623047"/>
       <use xlink:href="#DejaVuSans-32" x="95.410156"/>
       <use xlink:href="#DejaVuSans-30" x="159.033203"/>
      </g>
     </g>
    </g>
   </g>
   <g id="patch_3">
    <path d="M 90 448.56 
L 90 60.48 
" style="fill: none; stroke: #000000; stroke-width: 0.8; stroke-linejoin: miter; stroke-linecap: square"/>
   </g>
   <g id="patch_4">
    <path d="M 648 448.56 
L 648 60.48 
" style="fill: none; stroke: #000000; stroke-width: 0.8; stroke-linejoin: miter; stroke-linecap: square"/>
   </g>
   <g id="patch_5">
    <path d="M 90 448.56 
L 648 448.56 
" style="fill: none; stroke: #000000; stroke-width: 0.8; stroke-linejoin: miter; stroke-linecap: square"/>
   </g>
   <g id="patch_6">
    <path d="M 90 60.48 
L 648 60.48 
" style="fill: none; stroke: #000000; stroke-width: 0.8; stroke-linejoin: miter; stroke-linecap: square"/>
   </g>
   <g id="legend_1">
    <g id="patch_7">
     <path d="M 99.8 133.328125 
L 237.70875 133.328125 
Q 240.50875 133.328125 240.50875 130.528125 
L 240.50875 70.28 
Q 240.50875 67.48 237.70875 67.48 
L 99.8 67.48 
Q 97 67.48 97 70.28 
L 97 130.528125 
Q 97 133.328125 99.8 133.328125 
z
" style="fill: #ffffff; opacity: 0.8; stroke: #cccccc; stroke-linejoin: miter"/>
    </g>
    <g id="PathCollection_4">
     <g>
      <use xlink:href="#m16ddf3f5f6" x="116.6" y="80.042813" style="fill: #0000ff; stroke: #0000ff"/>
     </g>
    </g>
    <g id="text_14">
     <!-- Training Data -->
     <g transform="translate(141.8 83.717813) scale(0.14 -0.14)">
      <defs>
       <path id="DejaVuSans-54" d="M -19 4666 
L 3928 4666 
L 3928 4134 
L 2272 4134 
L 2272 0 
L 1638 0 
L 1638 4134 
L -19 4134 
L -19 4666 
z
" transform="scale(0.015625)"/>
       <path id="DejaVuSans-72" d="M 2631 2963 
Q 2534 3019 2420 3045 
Q 2306 3072 2169 3072 
Q 1681 3072 1420 2755 
Q 1159 2438 1159 1844 
L 1159 0 
L 581 0 
L 581 3500 
L 1159 3500 
L 1159 2956 
Q 1341 3275 1631 3429 
Q 1922 3584 2338 3584 
Q 2397 3584 2469 3576 
Q 2541 3569 2628 3553 
L 2631 2963 
z
" transform="scale(0.015625)"/>
       <path id="DejaVuSans-61" d="M 2194 1759 
Q 1497 1759 1228 1600 
Q 959 1441 959 1056 
Q 959 750 1161 570 
Q 1363 391 1709 391 
Q 2188 391 2477 730 
Q 2766 1069 2766 1631 
L 2766 1759 
L 2194 1759 
z
M 3341 1997 
L 3341 0 
L 2766 0 
L 2766 531 
Q 2569 213 2275 61 
Q 1981 -91 1556 -91 
Q 1019 -91 701 211 
Q 384 513 384 1019 
Q 384 1609 779 1909 
Q 1175 2209 1959 2209 
L 2766 2209 
L 2766 2266 
Q 2766 2663 2505 2880 
Q 2244 3097 1772 3097 
Q 1472 3097 1187 3025 
Q 903 2953 641 2809 
L 641 3341 
Q 956 3463 1253 3523 
Q 1550 3584 1831 3584 
Q 2591 3584 2966 3190 
Q 3341 2797 3341 1997 
z
" transform="scale(0.015625)"/>
       <path id="DejaVuSans-69" d="M 603 3500 
L 1178 3500 
L 1178 0 
L 603 0 
L 603 3500 
z
M 603 4863 
L 1178 4863 
L 1178 4134 
L 603 4134 
L 603 4863 
z
" transform="scale(0.015625)"/>
       <path id="DejaVuSans-6e" d="M 3513 2113 
L 3513 0 
L 2938 0 
L 2938 2094 
Q 2938 2591 2744 2837 
Q 2550 3084 2163 3084 
Q 1697 3084 1428 2787 
Q 1159 2491 1159 1978 
L 1159 0 
L 581 0 
L 581 3500 
L 1159 3500 
L 1159 2956 
Q 1366 3272 1645 3428 
Q 1925 3584 2291 3584 
Q 2894 3584 3203 3211 
Q 3513 2838 3513 2113 
z
" transform="scale(0.015625)"/>
       <path id="DejaVuSans-67" d="M 2906 1791 
Q 2906 2416 2648 2759 
Q 2391 3103 1925 3103 
Q 1463 3103 1205 2759 
Q 947 2416 947 1791 
Q 947 1169 1205 825 
Q 1463 481 1925 481 
Q 2391 481 2648 825 
Q 2906 1169 2906 1791 
z
M 3481 434 
Q 3481 -459 3084 -895 
Q 2688 -1331 1869 -1331 
Q 1566 -1331 1297 -1286 
Q 1028 -1241 775 -1147 
L 775 -588 
Q 1028 -725 1275 -790 
Q 1522 -856 1778 -856 
Q 2344 -856 2625 -561 
Q 2906 -266 2906 331 
L 2906 616 
Q 2728 306 2450 153 
Q 2172 0 1784 0 
Q 1141 0 747 490 
Q 353 981 353 1791 
Q 353 2603 747 3093 
Q 1141 3584 1784 3584 
Q 2172 3584 2450 3431 
Q 2728 3278 2906 2969 
L 2906 3500 
L 3481 3500 
L 3481 434 
z
" transform="scale(0.015625)"/>
       <path id="DejaVuSans-20" transform="scale(0.015625)"/>
       <path id="DejaVuSans-44" d="M 1259 4147 
L 1259 519 
L 2022 519 
Q 2988 519 3436 956 
Q 3884 1394 3884 2338 
Q 3884 3275 3436 3711 
Q 2988 4147 2022 4147 
L 1259 4147 
z
M 628 4666 
L 1925 4666 
Q 3281 4666 3915 4102 
Q 4550 3538 4550 2338 
Q 4550 1131 3912 565 
Q 3275 0 1925 0 
L 628 0 
L 628 4666 
z
" transform="scale(0.015625)"/>
       <path id="DejaVuSans-74" d="M 1172 4494 
L 1172 3500 
L 2356 3500 
L 2356 3053 
L 1172 3053 
L 1172 1153 
Q 1172 725 1289 603 
Q 1406 481 1766 481 
L 2356 481 
L 2356 0 
L 1766 0 
Q 1100 0 847 248 
Q 594 497 594 1153 
L 594 3053 
L 172 3053 
L 172 3500 
L 594 3500 
L 594 4494 
L 1172 4494 
z
" transform="scale(0.015625)"/>
      </defs>
      <use xlink:href="#DejaVuSans-54"/>
      <use xlink:href="#DejaVuSans-72" x="46.333984"/>
      <use xlink:href="#DejaVuSans-61" x="87.447266"/>
      <use xlink:href="#DejaVuSans-69" x="148.726562"/>
      <use xlink:href="#DejaVuSans-6e" x="176.509766"/>
      <use xlink:href="#DejaVuSans-69" x="239.888672"/>
      <use xlink:href="#DejaVuSans-6e" x="267.671875"/>
      <use xlink:href="#DejaVuSans-67" x="331.050781"/>
      <use xlink:href="#DejaVuSans-20" x="394.527344"/>
      <use xlink:href="#DejaVuSans-44" x="426.314453"/>
      <use xlink:href="#DejaVuSans-61" x="503.316406"/>
      <use xlink:href="#DejaVuSans-74" x="564.595703"/>
      <use xlink:href="#DejaVuSans-61" x="603.804688"/>
     </g>
    </g>
    <g id="PathCollection_5">
     <g>
      <use xlink:href="#m5de816925f" x="116.6" y="100.592188" style="fill: #008000; stroke: #008000"/>
     </g>
    </g>
    <g id="text_15">
     <!-- Testing Data -->
     <g transform="translate(141.8 104.267188) scale(0.14 -0.14)">
      <defs>
       <path id="DejaVuSans-65" d="M 3597 1894 
L 3597 1613 
L 953 1613 
Q 991 1019 1311 708 
Q 1631 397 2203 397 
Q 2534 397 2845 478 
Q 3156 559 3463 722 
L 3463 178 
Q 3153 47 2828 -22 
Q 2503 -91 2169 -91 
Q 1331 -91 842 396 
Q 353 884 353 1716 
Q 353 2575 817 3079 
Q 1281 3584 2069 3584 
Q 2775 3584 3186 3129 
Q 3597 2675 3597 1894 
z
M 3022 2063 
Q 3016 2534 2758 2815 
Q 2500 3097 2075 3097 
Q 1594 3097 1305 2825 
Q 1016 2553 972 2059 
L 3022 2063 
z
" transform="scale(0.015625)"/>
       <path id="DejaVuSans-73" d="M 2834 3397 
L 2834 2853 
Q 2591 2978 2328 3040 
Q 2066 3103 1784 3103 
Q 1356 3103 1142 2972 
Q 928 2841 928 2578 
Q 928 2378 1081 2264 
Q 1234 2150 1697 2047 
L 1894 2003 
Q 2506 1872 2764 1633 
Q 3022 1394 3022 966 
Q 3022 478 2636 193 
Q 2250 -91 1575 -91 
Q 1294 -91 989 -36 
Q 684 19 347 128 
L 347 722 
Q 666 556 975 473 
Q 1284 391 1588 391 
Q 1994 391 2212 530 
Q 2431 669 2431 922 
Q 2431 1156 2273 1281 
Q 2116 1406 1581 1522 
L 1381 1569 
Q 847 1681 609 1914 
Q 372 2147 372 2553 
Q 372 3047 722 3315 
Q 1072 3584 1716 3584 
Q 2034 3584 2315 3537 
Q 2597 3491 2834 3397 
z
" transform="scale(0.015625)"/>
      </defs>
      <use xlink:href="#DejaVuSans-54"/>
      <use xlink:href="#DejaVuSans-65" x="44.083984"/>
      <use xlink:href="#DejaVuSans-73" x="105.607422"/>
      <use xlink:href="#DejaVuSans-74" x="157.707031"/>
      <use xlink:href="#DejaVuSans-69" x="196.916016"/>
      <use xlink:href="#DejaVuSans-6e" x="224.699219"/>
      <use xlink:href="#DejaVuSans-67" x="288.078125"/>
      <use xlink:href="#DejaVuSans-20" x="351.554688"/>
      <use xlink:href="#DejaVuSans-44" x="383.341797"/>
      <use xlink:href="#DejaVuSans-61" x="460.34375"/>
      <use xlink:href="#DejaVuSans-74" x="521.623047"/>
      <use xlink:href="#DejaVuSans-61" x="560.832031"/>
     </g>
    </g>
    <g id="PathCollection_6">
     <g>
      <use xlink:href="#med9c05ce12" x="116.6" y="121.141563" style="fill: #ff0000; stroke: #ff0000"/>
     </g>
    </g>
    <g id="text_16">
     <!-- Prediction -->
     <g transform="translate(141.8 124.816563) scale(0.14 -0.14)">
      <defs>
       <path id="DejaVuSans-50" d="M 1259 4147 
L 1259 2394 
L 2053 2394 
Q 2494 2394 2734 2622 
Q 2975 2850 2975 3272 
Q 2975 3691 2734 3919 
Q 2494 4147 2053 4147 
L 1259 4147 
z
M 628 4666 
L 2053 4666 
Q 2838 4666 3239 4311 
Q 3641 3956 3641 3272 
Q 3641 2581 3239 2228 
Q 2838 1875 2053 1875 
L 1259 1875 
L 1259 0 
L 628 0 
L 628 4666 
z
" transform="scale(0.015625)"/>
       <path id="DejaVuSans-64" d="M 2906 2969 
L 2906 4863 
L 3481 4863 
L 3481 0 
L 2906 0 
L 2906 525 
Q 2725 213 2448 61 
Q 2172 -91 1784 -91 
Q 1150 -91 751 415 
Q 353 922 353 1747 
Q 353 2572 751 3078 
Q 1150 3584 1784 3584 
Q 2172 3584 2448 3432 
Q 2725 3281 2906 2969 
z
M 947 1747 
Q 947 1113 1208 752 
Q 1469 391 1925 391 
Q 2381 391 2643 752 
Q 2906 1113 2906 1747 
Q 2906 2381 2643 2742 
Q 2381 3103 1925 3103 
Q 1469 3103 1208 2742 
Q 947 2381 947 1747 
z
" transform="scale(0.015625)"/>
       <path id="DejaVuSans-63" d="M 3122 3366 
L 3122 2828 
Q 2878 2963 2633 3030 
Q 2388 3097 2138 3097 
Q 1578 3097 1268 2742 
Q 959 2388 959 1747 
Q 959 1106 1268 751 
Q 1578 397 2138 397 
Q 2388 397 2633 464 
Q 2878 531 3122 666 
L 3122 134 
Q 2881 22 2623 -34 
Q 2366 -91 2075 -91 
Q 1284 -91 818 406 
Q 353 903 353 1747 
Q 353 2603 823 3093 
Q 1294 3584 2113 3584 
Q 2378 3584 2631 3529 
Q 2884 3475 3122 3366 
z
" transform="scale(0.015625)"/>
       <path id="DejaVuSans-6f" d="M 1959 3097 
Q 1497 3097 1228 2736 
Q 959 2375 959 1747 
Q 959 1119 1226 758 
Q 1494 397 1959 397 
Q 2419 397 2687 759 
Q 2956 1122 2956 1747 
Q 2956 2369 2687 2733 
Q 2419 3097 1959 3097 
z
M 1959 3584 
Q 2709 3584 3137 3096 
Q 3566 2609 3566 1747 
Q 3566 888 3137 398 
Q 2709 -91 1959 -91 
Q 1206 -91 779 398 
Q 353 888 353 1747 
Q 353 2609 779 3096 
Q 1206 3584 1959 3584 
z
" transform="scale(0.015625)"/>
      </defs>
      <use xlink:href="#DejaVuSans-50"/>
      <use xlink:href="#DejaVuSans-72" x="58.552734"/>
      <use xlink:href="#DejaVuSans-65" x="97.416016"/>
      <use xlink:href="#DejaVuSans-64" x="158.939453"/>
      <use xlink:href="#DejaVuSans-69" x="222.416016"/>
      <use xlink:href="#DejaVuSans-63" x="250.199219"/>
      <use xlink:href="#DejaVuSans-74" x="305.179688"/>
      <use xlink:href="#DejaVuSans-69" x="344.388672"/>
      <use xlink:href="#DejaVuSans-6f" x="372.171875"/>
      <use xlink:href="#DejaVuSans-6e" x="433.353516"/>
     </g>
    </g>
   </g>
  </g>
 </g>
 <defs>
  <clipPath id="pf238608aad">
   <rect x="90" y="60.48" width="558" height="388.08"/>
  </clipPath>
 </defs>
</svg>
